<svg xmlns="http://www.w3.org/2000/svg" xmlns:xlink="http://www.w3.org/1999/xlink" id="Layer_1" x="0" y="0" version="1.1" viewBox="0 0 512 512" style="enable-background:new 0 0 512 512" xml:space="preserve"><style type="text/css">.st0{fill:url(#XMLID_2_)}.st1{fill:#444}.st2{fill:#77deff}.st3{fill:#eee}.st4{fill:#00acbe}</style><g id="XMLID_96_"><linearGradient id="XMLID_2_" x1=".5" x2="511.5" y1="256" y2="256" gradientUnits="userSpaceOnUse"><stop offset="0" style="stop-color:#7bd0e0"/><stop offset=".463" style="stop-color:#00acbe"/><stop offset="1" style="stop-color:#187687"/></linearGradient><circle id="XMLID_35_" cx="256" cy="256" r="255.5" class="st0"/><g id="XMLID_59_"><circle id="XMLID_28_" cx="256" cy="256" r="219.2" class="st1"/><path id="XMLID_27_" d="M363.6,142.1v208.1H150.9V142.1h-20.4c0,91,0,137,0,228.5c94.7,0,158.5,0,253.5,0 c0-91.5,0-137.2,0-228.5H363.6z" class="st2"/><rect id="XMLID_26_" width="48.2" height="20.4" x="170.8" y="182.8" class="st3"/><rect id="XMLID_25_" width="103.7" height="20.4" x="239.4" y="182.8" class="st3"/><rect id="XMLID_24_" width="20.4" height="20.4" x="130.5" y="162.4" class="st4"/><rect id="XMLID_23_" width="20.4" height="20.4" x="363.6" y="162.4" class="st4"/><rect id="XMLID_22_" width="48.2" height="20.4" x="170.8" y="223.9" class="st3"/><rect id="XMLID_21_" width="103.7" height="20.4" x="239.4" y="223.9" class="st3"/><rect id="XMLID_20_" width="48.2" height="20.4" x="170.8" y="265.1" class="st3"/><rect id="XMLID_19_" width="103.7" height="20.4" x="239.4" y="265.1" class="st3"/><rect id="XMLID_18_" width="48.2" height="20.4" x="170.8" y="306.2" class="st3"/><rect id="XMLID_17_" width="103.7" height="20.4" x="239.4" y="306.2" class="st3"/><rect id="XMLID_16_" width="253.5" height="20.4" x="130.5" y="142.1" class="st3"/></g></g></svg>