<svg xmlns="http://www.w3.org/2000/svg" xmlns:xlink="http://www.w3.org/1999/xlink" id="Layer_1" x="0" y="0" version="1.1" viewBox="0 0 512 512" style="enable-background:new 0 0 512 512" xml:space="preserve"><style type="text/css">.st0{fill:url(#XMLID_7_)}.st1{fill:#444}.st2{fill:#eee}.st3{fill:#00acbe}.st4{fill:#77deff}</style><g id="XMLID_93_"><linearGradient id="XMLID_7_" x1=".5" x2="511.5" y1="256" y2="256" gradientUnits="userSpaceOnUse"><stop offset="0" style="stop-color:#7bd0e0"/><stop offset=".463" style="stop-color:#00acbe"/><stop offset="1" style="stop-color:#187687"/></linearGradient><circle id="XMLID_38_" cx="256" cy="256" r="255.5" class="st0"/><g id="XMLID_40_"><circle id="XMLID_5_" cx="256" cy="256" r="219.2" class="st1"/><path id="XMLID_43_" d="M166.5,219.5c0,68,0,18.2,0,179c160.7,0,111.1,0,179,0c0-68,0-18.2,0-179 C277.6,219.5,327.3,219.5,166.5,219.5z M326,379H186V239h140V379z" class="st2"/><rect id="XMLID_2_" width="19.5" height="70.2" x="302.8" y="91.8" class="st3"/><polygon id="XMLID_1_" points="382.7 218.4 256.2 91.8 256 92 255.8 91.8 129.3 218.4 143.1 232.3 256 119.3 368.9 232.3" class="st4"/></g></g></svg>